<svg width="36" height="36" viewBox="0 0 36 36" fill="none" xmlns="http://www.w3.org/2000/svg">
<rect width="36" height="36" rx="10" fill="#62AF00"/>
<path d="M26.7497 14.3392H13.8789C12.4573 14.3392 11.3048 15.4194 11.3048 16.7519V23.9899C11.3048 25.3224 12.4573 26.4026 13.8789 26.4026H26.7497C28.1713 26.4026 29.3238 25.3224 29.3238 23.9899V16.7519C29.3238 15.4194 28.1713 14.3392 26.7497 14.3392Z" stroke="white" stroke-linecap="round" stroke-linejoin="round"/>
<path d="M20.3143 22.7836C21.736 22.7836 22.8884 21.7034 22.8884 20.3709C22.8884 19.0384 21.736 17.9583 20.3143 17.9583C18.8926 17.9583 17.7402 19.0384 17.7402 20.3709C17.7402 21.7034 18.8926 22.7836 20.3143 22.7836Z" stroke="white" stroke-linecap="round" stroke-linejoin="round"/>
<path d="M24.1755 14.3391V11.9265C24.1755 11.2866 23.9043 10.6729 23.4216 10.2204C22.9388 9.76798 22.2841 9.51379 21.6014 9.51379H8.73066C8.04795 9.51379 7.39321 9.76798 6.91046 10.2204C6.42772 10.6729 6.15651 11.2866 6.15651 11.9265V19.1645C6.15651 19.8043 6.42772 20.418 6.91046 20.8705C7.39321 21.3229 8.04795 21.5771 8.73066 21.5771H11.3048" stroke="white" stroke-linecap="round" stroke-linejoin="round"/>
</svg>
