<svg width="36" height="36" viewBox="0 0 36 36" fill="none" xmlns="http://www.w3.org/2000/svg">
<rect width="36" height="36" rx="10" fill="#00BE91"/>
<path d="M23 13.4685V10.4685C23 10.2033 22.8946 9.94894 22.7071 9.7614C22.5196 9.57386 22.2652 9.46851 22 9.46851H12C11.4696 9.46851 10.9609 9.67922 10.5858 10.0543C10.2107 10.4294 10 10.9381 10 11.4685M10 11.4685C10 11.9989 10.2107 12.5076 10.5858 12.8827C10.9609 13.2578 11.4696 13.4685 12 13.4685H24C24.2652 13.4685 24.5196 13.5739 24.7071 13.7614C24.8946 13.9489 25 14.2033 25 14.4685V17.4685M10 11.4685V23.4685C10 23.9989 10.2107 24.5076 10.5858 24.8827C10.9609 25.2578 11.4696 25.4685 12 25.4685H24C24.2652 25.4685 24.5196 25.3631 24.7071 25.1756C24.8946 24.9881 25 24.7337 25 24.4685V21.4685" stroke="white" stroke-linecap="round" stroke-linejoin="round"/>
<path d="M26 17.4685V21.4685H22C21.4696 21.4685 20.9609 21.2578 20.5858 20.8827C20.2107 20.5076 20 19.9989 20 19.4685C20 18.9381 20.2107 18.4294 20.5858 18.0543C20.9609 17.6792 21.4696 17.4685 22 17.4685H26Z" stroke="white" stroke-linecap="round" stroke-linejoin="round"/>
</svg>
