<svg width="36" height="37" viewBox="0 0 36 37" fill="none" xmlns="http://www.w3.org/2000/svg">
<rect y="0.958252" width="36" height="36" rx="10" fill="#F5B100"/>
<path d="M10.0004 16.9584H8.66705V27.625H10.0004C10.7337 27.625 11.3337 27.025 11.3337 26.2917V18.2917C11.3337 17.5584 10.7337 16.9584 10.0004 16.9584Z" stroke="white" stroke-miterlimit="10"/>
<path d="M11.6671 19.2919H13.8671C14.1671 19.2919 14.4604 19.3919 14.7004 19.5852L17.3004 21.6652C17.5337 21.8519 17.8337 21.9585 18.1337 21.9585H19.6671C20.4004 21.9585 21.0004 22.5585 21.0004 23.2919" stroke="white" stroke-miterlimit="10" stroke-linecap="round"/>
<path d="M15.0004 23.2917C15.0004 23.2917 21.0004 23.9584 23.0004 23.2917C25.0004 22.625 26.3337 21.2917 26.3337 21.2917C26.3337 21.2917 27.6671 19.9584 28.3337 21.2917C29.0004 22.625 25.6671 24.625 25.6671 24.625C25.6671 24.625 21.0671 28.0717 16.6737 26.965C16.1537 26.8317 15.7004 26.545 15.2871 26.205C14.8004 25.8117 13.7604 25.2917 11.6671 25.2917" stroke="white" stroke-miterlimit="10" stroke-linecap="round"/>
<path d="M25.7188 7.55481H17.3151C16.3869 7.55481 15.6344 8.3073 15.6344 9.23554V14.2777C15.6344 15.206 16.3869 15.9585 17.3151 15.9585H25.7188C26.647 15.9585 27.3995 15.206 27.3995 14.2777V9.23554C27.3995 8.3073 26.647 7.55481 25.7188 7.55481Z" stroke="white" stroke-linecap="round" stroke-linejoin="round"/>
<path d="M21.517 13.4373C22.4452 13.4373 23.1977 12.6848 23.1977 11.7565C23.1977 10.8283 22.4452 10.0758 21.517 10.0758C20.5887 10.0758 19.8362 10.8283 19.8362 11.7565C19.8362 12.6848 20.5887 13.4373 21.517 13.4373Z" stroke="white" stroke-linecap="round" stroke-linejoin="round"/>
</svg>
