<svg width="36" height="37" viewBox="0 0 36 37" fill="none" xmlns="http://www.w3.org/2000/svg">
<rect y="0.958252" width="36" height="36" rx="10" fill="#0062F5"/>
<line x1="11.8199" y1="23.3718" x2="18.5664" y2="23.3718" stroke="white" stroke-linecap="round" stroke-linejoin="round"/>
<path d="M11.8517 18.3474L11.8517 23.2222" stroke="white" stroke-linecap="round" stroke-linejoin="round"/>
<path d="M11.841 15.7404C12.583 15.7404 13.1846 15.1389 13.1846 14.3968C13.1846 13.6548 12.583 13.0532 11.841 13.0532C11.0989 13.0532 10.4974 13.6548 10.4974 14.3968C10.4974 15.1389 11.0989 15.7404 11.841 15.7404Z" stroke="white" stroke-linecap="round" stroke-linejoin="round"/>
<path d="M15.4239 10.814H8.25806C7.46654 10.814 6.82489 11.4556 6.82489 12.2471V16.5467C6.82489 17.3382 7.46654 17.9798 8.25806 17.9798H15.4239C16.2154 17.9798 16.8571 17.3382 16.8571 16.5467V12.2471C16.8571 11.4556 16.2154 10.814 15.4239 10.814Z" stroke="white" stroke-linecap="round" stroke-linejoin="round"/>
<path d="M24.0826 24.8632C24.8246 24.8632 25.4262 24.2617 25.4262 23.5196C25.4262 22.7776 24.8246 22.176 24.0826 22.176C23.3405 22.176 22.739 22.7776 22.739 23.5196C22.739 24.2617 23.3405 24.8632 24.0826 24.8632Z" stroke="white" stroke-linecap="round" stroke-linejoin="round"/>
<path d="M27.6655 19.9368H20.4996C19.7081 19.9368 19.0665 20.5784 19.0665 21.3699V25.6695C19.0665 26.461 19.7081 27.1026 20.4996 27.1026H27.6655C28.457 27.1026 29.0987 26.461 29.0987 25.6695V21.3699C29.0987 20.5784 28.457 19.9368 27.6655 19.9368Z" stroke="white" stroke-linecap="round" stroke-linejoin="round"/>
</svg>
