<svg width="36" height="37" viewBox="0 0 36 37" fill="none" xmlns="http://www.w3.org/2000/svg">
<rect y="0.958252" width="36" height="36" rx="10" fill="#FFB050"/>
<path d="M15.0823 13.9221H21.0823M15.0823 17.9221H21.0823M19.0823 21.9221H21.0823M11.0823 11.9221V24.9221C11.0823 26.579 12.4254 27.9221 14.0823 27.9221V27.9221H16.0823H18.0823H20.0823H22.0823V27.9221C23.7391 27.9221 25.0823 26.579 25.0823 24.9221V11.9221C25.0823 11.3917 24.8716 10.883 24.4965 10.5079C24.1214 10.1328 23.6127 9.92212 23.0823 9.92212H13.0823C12.5518 9.92212 12.0431 10.1328 11.6681 10.5079C11.293 10.883 11.0823 11.3917 11.0823 11.9221Z" stroke="white" stroke-linecap="round" stroke-linejoin="round"/>
</svg>
