<svg width="36" height="37" viewBox="0 0 36 37" fill="none" xmlns="http://www.w3.org/2000/svg">
<rect y="0.958252" width="36" height="36" rx="10" fill="#8D00FC"/>
<path d="M11.0823 11.9221L11.0823 26.9221C11.0823 28.579 12.3359 29.9221 13.8823 29.9221L22.2823 29.9221C23.8287 29.9221 25.0823 28.579 25.0823 26.9221L25.0823 11.9221C25.0823 10.2653 23.8287 8.92212 22.2823 8.92212L13.8823 8.92212C12.3359 8.92212 11.0823 10.2653 11.0823 11.9221Z" stroke="white" stroke-linecap="round" stroke-linejoin="round"/>
<path d="M20.5464 17.5131C20.4487 17.2436 20.2702 17.0086 20.034 16.8385C19.7978 16.6684 19.5146 16.5709 19.221 16.5586H17.2573C16.8667 16.5586 16.4921 16.7094 16.216 16.978C15.9398 17.2465 15.7846 17.6107 15.7846 17.9904C15.7846 18.3701 15.9398 18.7343 16.216 19.0029C16.4921 19.2714 16.8667 19.4222 17.2573 19.4222H19.221C19.6115 19.4222 19.9861 19.5731 20.2623 19.8416C20.5385 20.1101 20.6937 20.4743 20.6937 20.854C20.6937 21.2338 20.5385 21.598 20.2623 21.8665C19.9861 22.135 19.6115 22.2858 19.221 22.2858H17.2573C16.9636 22.2735 16.6805 22.176 16.4443 22.0059C16.208 21.8358 16.0296 21.6009 15.9319 21.3313" stroke="white" stroke-linecap="round" stroke-linejoin="round"/>
<path d="M18.2391 22.4221V23.9221M18.2391 14.9221V16.4221V14.9221Z" stroke="white" stroke-linecap="round" stroke-linejoin="round"/>
</svg>
