<svg width="24" height="24" viewBox="0 0 24 24" fill="none" xmlns="http://www.w3.org/2000/svg">
<path d="M8.00006 4H6.00006C4.89549 4 4.00006 4.89543 4.00006 6V7C4.00006 8.10457 4.89549 9 6.00006 9H8.00006C9.10463 9 10.0001 8.10457 10.0001 7V6C10.0001 4.89543 9.10463 4 8.00006 4Z" stroke="white" stroke-width="2" stroke-linecap="round" stroke-linejoin="round"/>
<path d="M8.00006 13H6.00006C4.89549 13 4.00006 13.8954 4.00006 15V18C4.00006 19.1046 4.89549 20 6.00006 20H8.00006C9.10463 20 10.0001 19.1046 10.0001 18V15C10.0001 13.8954 9.10463 13 8.00006 13Z" stroke="white" stroke-width="2" stroke-linecap="round" stroke-linejoin="round"/>
<path d="M18.0001 4H16.0001C14.8955 4 14.0001 4.89543 14.0001 6V9C14.0001 10.1046 14.8955 11 16.0001 11H18.0001C19.1046 11 20.0001 10.1046 20.0001 9V6C20.0001 4.89543 19.1046 4 18.0001 4Z" stroke="white" stroke-width="2" stroke-linecap="round" stroke-linejoin="round"/>
<path d="M18.0001 15H16.0001C14.8955 15 14.0001 15.8954 14.0001 17V18C14.0001 19.1046 14.8955 20 16.0001 20H18.0001C19.1046 20 20.0001 19.1046 20.0001 18V17C20.0001 15.8954 19.1046 15 18.0001 15Z" stroke="white" stroke-width="2" stroke-linecap="round" stroke-linejoin="round"/>
</svg>
