<svg width="136" height="36" viewBox="0 0 136 36" fill="none" xmlns="http://www.w3.org/2000/svg">
<path d="M53.8302 31.432C53.1403 31.432 52.5828 31.216 52.1577 30.7909C51.7257 30.3588 51.5166 29.8292 51.5166 29.1881V7.91285C51.5166 7.27173 51.7326 6.74212 52.1577 6.31006C52.5898 5.878 53.1194 5.66895 53.7605 5.66895H65.7257C66.3668 5.66895 66.8964 5.87104 67.3284 6.27522C67.7605 6.6794 67.9696 7.20205 67.9696 7.84316C67.9696 8.38672 67.7535 8.86058 67.3284 9.2787C66.9034 9.69682 66.3668 9.90588 65.7257 9.90588H55.7814L56.1089 9.46686V16.8676L55.8511 16.3867H64.0602C64.7013 16.3867 65.2309 16.5888 65.6629 16.993C66.095 17.3972 66.3041 17.9198 66.3041 18.554C66.3041 19.0975 66.088 19.5714 65.6629 19.9895C65.2309 20.4076 64.7013 20.6167 64.0602 20.6167H55.7814L56.1089 20.2892V29.1951C56.1089 29.8362 55.879 30.3658 55.426 30.7979C54.973 31.216 54.4434 31.432 53.8302 31.432Z" fill="white"/>
<path d="M76.6107 29.1878C76.6107 29.8289 76.3946 30.3585 75.9695 30.7906C75.5375 31.2226 75.0079 31.4317 74.3668 31.4317C73.7535 31.4317 73.2378 31.2157 72.8197 30.7906C72.4016 30.3585 72.1925 29.8289 72.1925 29.1878V6.44214C72.1925 5.808 72.4086 5.27141 72.8336 4.83936C73.2657 4.41427 73.7953 4.19824 74.4364 4.19824C75.0776 4.19824 75.5932 4.41427 75.9974 4.83936C76.4016 5.27141 76.6037 5.80103 76.6037 6.44214V29.1878H76.6107Z" fill="white"/>
<path d="M90.4922 31.8013C88.4086 31.8013 86.5967 31.3623 85.0636 30.4912C83.5305 29.6201 82.3528 28.4355 81.5305 26.9372C80.7082 25.439 80.2971 23.7456 80.2971 21.8571C80.2971 19.648 80.7431 17.7665 81.642 16.2055C82.534 14.6445 83.7117 13.4529 85.1542 12.6167C86.6037 11.7804 88.1368 11.3623 89.7535 11.3623C91.0009 11.3623 92.1856 11.6201 93.3075 12.1358C94.4225 12.6515 95.412 13.3553 96.2692 14.2543C97.1263 15.1532 97.8093 16.1846 98.311 17.3623C98.8127 18.54 99.0636 19.7944 99.0636 21.1184C99.0427 21.7107 98.8058 22.1846 98.3667 22.5539C97.9277 22.9233 97.412 23.1045 96.8197 23.1045H82.757L81.6559 19.425H95.1612L94.3528 20.1637V19.1672C94.304 18.4564 94.0532 17.8153 93.6002 17.2508C93.1472 16.6863 92.5828 16.2404 91.9068 15.9059C91.2309 15.5783 90.5131 15.4111 89.7535 15.4111C89.0148 15.4111 88.3319 15.5086 87.6908 15.7038C87.0497 15.8989 86.4992 16.2334 86.0323 16.7003C85.5654 17.1672 85.196 17.7944 84.9312 18.5748C84.6594 19.3623 84.527 20.3519 84.527 21.5574C84.527 22.8815 84.8058 24.0034 85.3563 24.9233C85.9068 25.8431 86.6176 26.54 87.4887 27.0208C88.3598 27.5017 89.2866 27.7386 90.2692 27.7386C91.1751 27.7386 91.8998 27.6689 92.4434 27.5156C92.98 27.3693 93.419 27.1881 93.7535 26.979C94.081 26.77 94.3876 26.5888 94.6525 26.4424C95.0915 26.2194 95.5096 26.1079 95.9068 26.1079C96.4434 26.1079 96.8964 26.2961 97.2518 26.6585C97.6072 27.0278 97.7814 27.4529 97.7814 27.9477C97.7814 28.6097 97.4399 29.209 96.75 29.7525C96.1089 30.2961 95.2169 30.763 94.0601 31.1672C92.9033 31.5714 91.7187 31.8013 90.4922 31.8013Z" fill="white"/>
<path d="M111.837 31.8013C109.754 31.8013 107.942 31.3623 106.409 30.4912C104.875 29.6201 103.698 28.4355 102.875 26.9372C102.053 25.439 101.642 23.7456 101.642 21.8571C101.642 19.648 102.088 17.7665 102.987 16.2055C103.879 14.6445 105.057 13.4529 106.499 12.6167C107.949 11.7804 109.482 11.3623 111.098 11.3623C112.353 11.3623 113.531 11.6201 114.652 12.1358C115.767 12.6515 116.757 13.3553 117.614 14.2543C118.471 15.1532 119.154 16.1846 119.656 17.3623C120.158 18.54 120.409 19.7944 120.409 21.1184C120.388 21.7107 120.151 22.1846 119.712 22.5539C119.273 22.9233 118.757 23.1045 118.165 23.1045H104.102L103.001 19.425H116.506L115.698 20.1637V19.1672C115.649 18.4564 115.398 17.8153 114.945 17.2508C114.492 16.6863 113.928 16.2404 113.252 15.9059C112.576 15.5783 111.858 15.4111 111.098 15.4111C110.36 15.4111 109.677 15.5086 109.036 15.7038C108.395 15.8989 107.844 16.2334 107.377 16.7003C106.91 17.1672 106.541 17.7944 106.269 18.5748C105.997 19.3623 105.865 20.3519 105.865 21.5574C105.865 22.8815 106.144 24.0034 106.694 24.9233C107.245 25.8431 107.956 26.54 108.827 27.0208C109.698 27.5017 110.625 27.7386 111.607 27.7386C112.513 27.7386 113.238 27.6689 113.781 27.5156C114.318 27.3693 114.757 27.1881 115.092 26.979C115.419 26.77 115.726 26.5888 115.99 26.4424C116.429 26.2194 116.848 26.1079 117.238 26.1079C117.781 26.1079 118.227 26.2961 118.583 26.6585C118.938 27.0278 119.119 27.4529 119.119 27.9477C119.119 28.6097 118.778 29.209 118.088 29.7525C117.447 30.2961 116.555 30.763 115.398 31.1672C114.255 31.5992 113.064 31.8013 111.837 31.8013Z" fill="white"/>
<path d="M124.318 12.1081H133.043C133.635 12.1081 134.123 12.3032 134.513 12.7004C134.903 13.0907 135.105 13.5854 135.105 14.1708C135.105 14.7353 134.91 15.2091 134.513 15.5854C134.123 15.9687 133.628 16.1569 133.043 16.1569H124.318C123.726 16.1569 123.238 15.9618 122.848 15.5645C122.457 15.1743 122.255 14.6795 122.255 14.0942C122.255 13.5297 122.45 13.0558 122.848 12.6795C123.231 12.3032 123.726 12.1081 124.318 12.1081ZM128.255 7.50879C128.889 7.50879 129.412 7.72482 129.823 8.1499C130.234 8.57499 130.429 9.11158 130.429 9.75269V26.129C130.429 26.4705 130.499 26.7562 130.632 26.9792C130.764 27.2022 130.952 27.3624 131.182 27.46C131.412 27.5576 131.663 27.6063 131.935 27.6063C132.227 27.6063 132.499 27.5506 132.743 27.4391C132.987 27.3276 133.273 27.2719 133.586 27.2719C133.928 27.2719 134.241 27.4321 134.527 27.7527C134.813 28.0732 134.952 28.5123 134.952 29.0767C134.952 29.7666 134.576 30.3311 133.83 30.7701C133.078 31.2091 132.276 31.4321 131.419 31.4321C130.903 31.4321 130.332 31.3903 129.705 31.2997C129.078 31.2161 128.492 31.007 127.935 30.6726C127.384 30.345 126.924 29.8293 126.555 29.1464C126.186 28.4635 126.004 27.5158 126.004 26.3102V9.75269C126.004 9.11855 126.22 8.58196 126.652 8.1499C127.078 7.72482 127.614 7.50879 128.255 7.50879Z" fill="white"/>
<path d="M17.7674 22.2924C20.1381 22.2924 22.06 20.3705 22.06 17.9997C22.06 15.6289 20.1381 13.707 17.7674 13.707C15.3966 13.707 13.4747 15.6289 13.4747 17.9997C13.4747 20.3705 15.3966 22.2924 17.7674 22.2924Z" fill="white"/>
<path d="M17.7674 36C17.3562 36 16.952 35.9861 16.5548 35.9582C15.2099 35.8676 14.1924 34.7038 14.283 33.3659C14.3736 32.0209 15.5304 31.0035 16.8754 31.0941C17.1681 31.115 17.4677 31.122 17.7674 31.122C20.5688 31.122 23.2377 30.2509 25.4956 28.6063C26.5827 27.8118 28.1088 28.0488 28.9032 29.1359C29.6977 30.223 29.4607 31.7491 28.3736 32.5436C25.2796 34.8014 21.614 36 17.7674 36ZM8.65238 33.0523C8.1576 33.0523 7.65586 32.899 7.22381 32.5854C3.79523 30.1045 1.34227 26.4878 0.317882 22.4042C-0.00964442 21.0941 0.784781 19.77 2.08792 19.4425C3.39105 19.115 4.72206 19.9094 5.04959 21.2125C5.79523 24.1882 7.58617 26.8223 10.0879 28.6341C11.182 29.4216 11.4259 30.9477 10.6315 32.0418C10.1506 32.6969 9.41196 33.0523 8.65238 33.0523ZM32.2064 26.2509C31.8998 26.2509 31.5931 26.1951 31.2935 26.0767C30.0461 25.5749 29.4398 24.1533 29.9416 22.9059C30.5688 21.3519 30.8893 19.7003 30.8893 18.007C30.8893 16.6132 30.6733 15.2474 30.2482 13.9443C29.8301 12.662 30.5339 11.2892 31.8092 10.8711C33.0914 10.453 34.4642 11.1568 34.8823 12.4321C35.4677 14.23 35.7604 16.1045 35.7604 18.007C35.7604 20.3275 35.3214 22.5923 34.4642 24.7317C34.0879 25.6725 33.175 26.2509 32.2064 26.2509ZM2.95203 15.6794C2.70813 15.6794 2.45029 15.6446 2.20638 15.561C0.924153 15.1498 0.220321 13.777 0.631471 12.4948C1.92067 8.48084 4.59663 5.02439 8.17154 2.76655C9.30743 2.04878 10.8196 2.39024 11.5374 3.52613C12.2552 4.66202 11.9137 6.17422 10.7778 6.89199C8.16457 8.53659 6.21335 11.0592 5.27259 13.9791C4.94506 15.0174 3.98339 15.6794 2.95203 15.6794ZM27.7674 8.51568C27.2168 8.51568 26.6593 8.32753 26.1994 7.94425C23.844 5.96516 20.8545 4.87805 17.7674 4.87805C16.4224 4.87805 15.3005 3.78397 15.3005 2.43902C15.3005 1.09408 16.3597 0 17.7046 0H17.7674C21.9904 0 26.1019 1.49129 29.3283 4.20906C30.3597 5.07317 30.4921 6.61324 29.628 7.6446C29.1541 8.21603 28.4642 8.51568 27.7674 8.51568Z" fill="white"/>
</svg>
