<svg width="12" height="12" viewBox="0 0 12 12" fill="none" xmlns="http://www.w3.org/2000/svg">
<path d="M8.49976 5.50098H3.49976C2.94747 5.50098 2.49976 5.94869 2.49976 6.50098V9.50098C2.49976 10.0533 2.94747 10.501 3.49976 10.501H8.49976C9.05204 10.501 9.49976 10.0533 9.49976 9.50098V6.50098C9.49976 5.94869 9.05204 5.50098 8.49976 5.50098Z" stroke="#767676" stroke-width="0.7" stroke-linecap="round" stroke-linejoin="round"/>
<path d="M5.99976 8.5C6.2759 8.5 6.49975 8.27614 6.49975 8C6.49975 7.72386 6.2759 7.5 5.99976 7.5C5.72361 7.5 5.49976 7.72386 5.49976 8C5.49976 8.27614 5.72361 8.5 5.99976 8.5Z" stroke="#767676" stroke-width="0.7" stroke-linecap="round" stroke-linejoin="round"/>
<path d="M3.99976 5.5V3.5C3.99976 2.96957 4.21047 2.46086 4.58554 2.08579C4.96061 1.71071 5.46932 1.5 5.99976 1.5C6.53019 1.5 7.0389 1.71071 7.41397 2.08579C7.78904 2.46086 7.99976 2.96957 7.99976 3.5V5.5" stroke="#767676" stroke-width="0.7" stroke-linecap="round" stroke-linejoin="round"/>
</svg>
