<svg width="12" height="12" viewBox="0 0 12 12" fill="none" xmlns="http://www.w3.org/2000/svg">
<path d="M8.5 10.5H3.5C3.23478 10.5 2.98043 10.3946 2.79289 10.2071C2.60536 10.0196 2.5 9.76522 2.5 9.5V2.5C2.5 2.23478 2.60536 1.98043 2.79289 1.79289C2.98043 1.60536 3.23478 1.5 3.5 1.5L8.5 1.5C9.05229 1.5 9.5 1.94772 9.5 2.5V4V9.5C9.5 9.76522 9.39464 10.0196 9.20711 10.2071C9.01957 10.3946 8.76522 10.5 8.5 10.5Z" stroke="#767676" stroke-width="0.7" stroke-linecap="round" stroke-linejoin="round"/>
<path d="M4 8L4.5 8" stroke="#767676" stroke-width="0.7" stroke-linecap="round" stroke-linejoin="round"/>
<path d="M4 6L7 6" stroke="#767676" stroke-width="0.7" stroke-linecap="round" stroke-linejoin="round"/>
<path d="M4 4L7 4" stroke="#767676" stroke-width="0.7" stroke-linecap="round" stroke-linejoin="round"/>
</svg>
