<svg width="12" height="12" viewBox="0 0 12 12" fill="none" xmlns="http://www.w3.org/2000/svg">
<path d="M8.5 5.50049H3.5C2.94772 5.50049 2.5 5.9482 2.5 6.50049V9.50049C2.5 10.0528 2.94772 10.5005 3.5 10.5005H8.5C9.05229 10.5005 9.5 10.0528 9.5 9.50049V6.50049C9.5 5.9482 9.05229 5.50049 8.5 5.50049Z" stroke="#767676" stroke-width="0.7" stroke-linecap="round" stroke-linejoin="round"/>
<path d="M6 8.5C6.27614 8.5 6.5 8.27614 6.5 8C6.5 7.72386 6.27614 7.5 6 7.5C5.72386 7.5 5.5 7.72386 5.5 8C5.5 8.27614 5.72386 8.5 6 8.5Z" stroke="#767676" stroke-width="0.7" stroke-linecap="round" stroke-linejoin="round"/>
<path d="M4 5.50049V3.00049C4 2.47006 4.21071 1.96135 4.58579 1.58627C4.96086 1.2112 5.46957 1.00049 6 1.00049C6.53043 1.00049 7.03914 1.2112 7.41421 1.58627C7.78929 1.96135 8 2.47006 8 3.00049" stroke="#767676" stroke-width="0.7" stroke-linecap="round" stroke-linejoin="round"/>
</svg>
