<svg width="16" height="16" viewBox="0 0 16 16" fill="none" xmlns="http://www.w3.org/2000/svg">
<path d="M5.66634 13.3346C6.40272 13.3346 6.99968 12.7377 6.99968 12.0013C6.99968 11.2649 6.40272 10.668 5.66634 10.668C4.92996 10.668 4.33301 11.2649 4.33301 12.0013C4.33301 12.7377 4.92996 13.3346 5.66634 13.3346Z" stroke="#767676" stroke-width="0.8" stroke-linecap="round" stroke-linejoin="round"/>
<path d="M12.3333 13.3346C13.0697 13.3346 13.6667 12.7377 13.6667 12.0013C13.6667 11.2649 13.0697 10.668 12.3333 10.668C11.597 10.668 11 11.2649 11 12.0013C11 12.7377 11.597 13.3346 12.3333 13.3346Z" stroke="#767676" stroke-width="0.8" stroke-linecap="round" stroke-linejoin="round"/>
<path d="M4.33333 12.0006H3V7.97031M11 12.0006H7H9.66667V4.66797H7.02393M13.6667 12.0006H15V8.33398M15 8.33398H9.66667M15 8.33398L13.1665 5.33464H9.66667" stroke="#767676" stroke-width="0.8" stroke-linecap="round" stroke-linejoin="round"/>
<circle cx="4" cy="5" r="3" stroke="#767676" stroke-width="0.8"/>
<path d="M6.1665 2.83398L1.6665 6.83398" stroke="#767676" stroke-width="0.8"/>
</svg>
