<svg width="16" height="16" viewBox="0 0 16 16" fill="none" xmlns="http://www.w3.org/2000/svg">
<path d="M11.3333 7.33496H4.66659C3.93021 7.33496 3.33325 7.93191 3.33325 8.66829V12.6683C3.33325 13.4047 3.93021 14.0016 4.66659 14.0016H11.3333C12.0696 14.0016 12.6666 13.4047 12.6666 12.6683V8.66829C12.6666 7.93191 12.0696 7.33496 11.3333 7.33496Z" stroke="#767676" stroke-width="0.8" stroke-linecap="round" stroke-linejoin="round"/>
<path d="M7.99992 11.3333C8.36811 11.3333 8.66658 11.0349 8.66658 10.6667C8.66658 10.2985 8.36811 10 7.99992 10C7.63173 10 7.33325 10.2985 7.33325 10.6667C7.33325 11.0349 7.63173 11.3333 7.99992 11.3333Z" stroke="#767676" stroke-width="0.8" stroke-linecap="round" stroke-linejoin="round"/>
<path d="M5.33325 7.33333V4.66667C5.33325 3.95942 5.6142 3.28115 6.1143 2.78105C6.6144 2.28095 7.29267 2 7.99992 2C8.70716 2 9.38544 2.28095 9.88554 2.78105C10.3856 3.28115 10.6666 3.95942 10.6666 4.66667V7.33333" stroke="#767676" stroke-width="0.8" stroke-linecap="round" stroke-linejoin="round"/>
</svg>
