<svg width="16" height="16" viewBox="0 0 16 16" fill="none" xmlns="http://www.w3.org/2000/svg">
<path d="M5.33333 2H2.66667C2.29848 2 2 2.29848 2 2.66667V5.33333C2 5.70152 2.29848 6 2.66667 6H5.33333C5.70152 6 6 5.70152 6 5.33333V2.66667C6 2.29848 5.70152 2 5.33333 2Z" stroke="#767676" stroke-width="0.8" stroke-linecap="round" stroke-linejoin="round"/>
<path d="M13.3333 10H10.6667C10.2985 10 10 10.2985 10 10.6667V13.3333C10 13.7015 10.2985 14 10.6667 14H13.3333C13.7015 14 14 13.7015 14 13.3333V10.6667C14 10.2985 13.7015 10 13.3333 10Z" stroke="#767676" stroke-width="0.8" stroke-linecap="round" stroke-linejoin="round"/>
<path d="M13.9998 7.33333V5.33333C13.9998 4.97971 13.8594 4.64057 13.6093 4.39052C13.3593 4.14048 13.0201 4 12.6665 4H8.6665M8.6665 4L10.6665 6M8.6665 4L10.6665 2" stroke="#767676" stroke-width="0.8" stroke-linecap="round" stroke-linejoin="round"/>
<path d="M2 8.66614V10.6661C2 11.0198 2.14048 11.3589 2.39052 11.6089C2.64057 11.859 2.97971 11.9995 3.33333 11.9995H7.33333M7.33333 11.9995L5.33333 9.99947M7.33333 11.9995L5.33333 13.9995" stroke="#767676" stroke-width="0.8" stroke-linecap="round" stroke-linejoin="round"/>
</svg>
