<svg width="17" height="17" viewBox="0 0 17 17" fill="none" xmlns="http://www.w3.org/2000/svg">
<path d="M12.6178 6.27588H7.28451C6.54813 6.27588 5.95117 6.87283 5.95117 7.60921V12.9425C5.95117 13.6789 6.54813 14.2759 7.28451 14.2759H12.6178C13.3542 14.2759 13.9512 13.6789 13.9512 12.9425V7.60921C13.9512 6.87283 13.3542 6.27588 12.6178 6.27588Z" stroke="#128BFB" stroke-linecap="round" stroke-linejoin="round"/>
<path d="M11.2842 6.27458V4.94124C11.2842 4.58762 11.1437 4.24848 10.8937 3.99843C10.6436 3.74839 10.3045 3.60791 9.95085 3.60791H4.61751C4.26389 3.60791 3.92475 3.74839 3.6747 3.99843C3.42466 4.24848 3.28418 4.58762 3.28418 4.94124V10.2746C3.28418 10.6282 3.42466 10.9673 3.6747 11.2174C3.92475 11.4674 4.26389 11.6079 4.61751 11.6079H5.95085" stroke="#128BFB" stroke-linecap="round" stroke-linejoin="round"/>
</svg>
