<svg width="20" height="20" viewBox="0 0 20 20" fill="none" xmlns="http://www.w3.org/2000/svg">
<path d="M7.49992 5.8327H4.99992C4.55789 5.8327 4.13397 6.0083 3.82141 6.32086C3.50885 6.63342 3.33325 7.05734 3.33325 7.49937V14.9994C3.33325 15.4414 3.50885 15.8653 3.82141 16.1779C4.13397 16.4904 4.55789 16.666 4.99992 16.666H12.4999C12.9419 16.666 13.3659 16.4904 13.6784 16.1779C13.991 15.8653 14.1666 15.4414 14.1666 14.9994V12.4994" stroke="#271F56" stroke-linecap="round" stroke-linejoin="round"/>
<path d="M7.5 12.5006H10L17.0833 5.41727C17.4149 5.08575 17.6011 4.63611 17.6011 4.16727C17.6011 3.69843 17.4149 3.24879 17.0833 2.91727C16.7518 2.58575 16.3022 2.39951 15.8333 2.39951C15.3645 2.39951 14.9149 2.58575 14.5833 2.91727L7.5 10.0006V12.5006Z" stroke="#271F56" stroke-linecap="round" stroke-linejoin="round"/>
<path d="M13.3333 4.1673L15.8333 6.6673" stroke="#271F56" stroke-linecap="round" stroke-linejoin="round"/>
</svg>
