<svg width="130" height="132" viewBox="0 0 130 132" fill="none" xmlns="http://www.w3.org/2000/svg">
<path opacity="0.5" d="M129.5 65.76C129.5 101.662 100.619 130.76 65 130.76C29.3812 130.76 0.5 101.662 0.5 65.76C0.5 29.8579 29.3812 0.76001 65 0.76001C100.619 0.76001 129.5 29.8579 129.5 65.76Z" fill="#FFFBF7" stroke="#FAE9D3"/>
<g clip-path="url(#clip0)">
<path d="M61.7316 95.7624C43.1194 95.7624 28 80.8473 28 62.5358C28 44.2243 43.1194 29.26 61.7316 29.26C80.3439 29.26 95.4632 44.175 95.4632 62.5358C95.4632 80.8966 80.294 95.7624 61.7316 95.7624ZM61.7316 31.7212C44.5165 31.7212 30.4949 45.5533 30.4949 62.5358C30.4949 79.5183 44.5165 93.3504 61.7316 93.3504C78.9467 93.3504 92.9683 79.5183 92.9683 62.5358C92.9683 45.5533 78.9467 31.7212 61.7316 31.7212Z" fill="#151515"/>
<path d="M100.753 102.259C100.453 102.259 100.104 102.16 99.8544 101.914L83.9865 86.2608C83.4876 85.7686 83.4876 84.981 83.9865 84.538C84.4855 84.095 85.2839 84.0457 85.733 84.538L101.601 100.191C102.1 100.684 102.1 101.471 101.601 101.914C101.401 102.16 101.102 102.259 100.753 102.259Z" fill="#151515"/>
<path d="M78.3478 70.3628C78.3478 70.3628 80.2939 79.4693 74.805 78.9771C69.8151 79.7154 71.0127 72.7748 71.0127 72.7748L78.3478 70.3628Z" fill="#27A3FF"/>
<path d="M74.8049 79.7637C72.4098 79.7637 70.4637 77.8439 70.4637 75.4811L70.6134 72.823L50.8036 79.7637H74.8049Z" fill="#27A3FF"/>
<path d="M79.1462 55.4481L72.3101 49.9841H78.797L79.1462 55.4481Z" fill="#27A3FF"/>
<path d="M77.0006 48.8018H71.2123V47.4235C71.2123 45.7991 69.8651 44.5193 68.2184 44.5193H46.4126C44.7659 44.5193 43.4187 45.8484 43.4187 47.4235V73.2664C43.4187 77.2536 46.712 80.5024 50.7538 80.5024H74.7551C77.5994 80.5024 79.8947 78.2381 79.8947 75.4323V51.7553C79.9446 50.1309 78.6473 48.8018 77.0006 48.8018ZM50.8037 78.9765C47.6102 78.9765 45.0653 76.4168 45.0653 73.3156V47.4235C45.0653 46.6852 45.714 46.0452 46.4625 46.0452H68.2683C69.0168 46.0452 69.6655 46.6852 69.6655 47.4235V75.4323C69.6655 76.8106 70.2143 78.0412 71.1125 78.9765H50.8037ZM78.3978 75.4323C78.3978 77.4013 76.801 78.9765 74.805 78.9765C72.8091 78.9765 71.2123 77.4013 71.2123 75.4323V50.377H76.9507C77.6992 50.377 78.3479 51.0169 78.3479 51.7553V75.4323H78.3978Z" fill="#151515"/>
<path d="M62.2308 53.7743H52.5005C52.0015 53.7743 51.6023 53.3805 51.6023 52.8882C51.6023 52.396 52.0015 52.0022 52.5005 52.0022H62.2308C62.7297 52.0022 63.1289 52.396 63.1289 52.8882C63.1289 53.3805 62.6798 53.7743 62.2308 53.7743Z" fill="#151515"/>
<path d="M62.2308 63.3724H52.5005C52.0015 63.3724 51.6023 62.9786 51.6023 62.4864C51.6023 61.9941 52.0015 61.6003 52.5005 61.6003H62.2308C62.7297 61.6003 63.1289 61.9941 63.1289 62.4864C63.079 62.9786 62.6798 63.3724 62.2308 63.3724Z" fill="#151515"/>
<path d="M62.2308 72.9713H52.5005C52.0015 72.9713 51.6023 72.5775 51.6023 72.0853C51.6023 71.593 52.0015 71.1992 52.5005 71.1992H62.2308C62.7297 71.1992 63.1289 71.593 63.1289 72.0853C63.079 72.5775 62.6798 72.9713 62.2308 72.9713Z" fill="#151515"/>
</g>
<defs>
<clipPath id="clip0">
<rect width="74" height="73" fill="white" transform="translate(28 29.26)"/>
</clipPath>
</defs>
</svg>
