<svg width="134" height="36" viewBox="0 0 134 36" fill="none" xmlns="http://www.w3.org/2000/svg">
<path d="M53.0873 31.4327C52.4069 31.4327 51.8571 31.2167 51.4379 30.7916C51.0118 30.3596 50.8057 29.83 50.8057 29.1888V7.91358C50.8057 7.27247 51.0187 6.74285 51.4379 6.31079C51.864 5.87874 52.3863 5.66968 53.0186 5.66968H64.8186C65.4509 5.66968 65.9732 5.87177 66.3993 6.27595C66.8254 6.68013 67.0315 7.20278 67.0315 7.84389C67.0315 8.38745 66.8185 8.86132 66.3993 9.27943C65.9801 9.69755 65.4509 9.90661 64.8186 9.90661H55.0116L55.3346 9.46759V16.8683L55.0803 16.3874H63.1761C63.8084 16.3874 64.3307 16.5895 64.7568 16.9937C65.1829 17.3979 65.389 17.9206 65.389 18.5547C65.389 19.0983 65.176 19.5721 64.7568 19.9902C64.3307 20.4084 63.8084 20.6174 63.1761 20.6174H55.0116L55.3346 20.2899V29.1958C55.3346 29.8369 55.1078 30.3665 54.6611 30.7986C54.2144 31.2167 53.6921 31.4327 53.0873 31.4327Z" fill="#271F56"/>
<path d="M75.5534 29.1888C75.5534 29.8299 75.3404 30.3595 74.9212 30.7916C74.4951 31.2236 73.9728 31.4327 73.3405 31.4327C72.7357 31.4327 72.2272 31.2166 71.8148 30.7916C71.4025 30.3595 71.1963 29.8299 71.1963 29.1888V6.44312C71.1963 5.80898 71.4093 5.27239 71.8286 4.84033C72.2546 4.41525 72.777 4.19922 73.4092 4.19922C74.0415 4.19922 74.5501 4.41525 74.9487 4.84033C75.3473 5.27239 75.5466 5.80201 75.5466 6.44312V29.1888H75.5534Z" fill="#271F56"/>
<path d="M89.2429 31.8018C87.188 31.8018 85.4012 31.3628 83.8892 30.4917C82.3773 29.6206 81.2159 28.436 80.4049 26.9377C79.594 25.4394 79.1885 23.7461 79.1885 21.8576C79.1885 19.6485 79.6283 17.767 80.5149 16.206C81.3945 14.645 82.556 13.4534 83.9786 12.6171C85.4081 11.7809 86.92 11.3628 88.5144 11.3628C89.7446 11.3628 90.9129 11.6206 92.0194 12.1363C93.119 12.652 94.0949 13.3558 94.9402 14.2548C95.7855 15.1537 96.459 16.1851 96.9538 17.3628C97.4486 18.5405 97.696 19.7949 97.696 21.1189C97.6754 21.7112 97.4417 22.1851 97.0088 22.5544C96.5758 22.9238 96.0672 23.105 95.4831 23.105H81.6145L80.5286 19.4255H93.8474L93.0502 20.1642V19.1677C93.0021 18.4569 92.7547 17.8158 92.308 17.2513C91.8613 16.6868 91.3046 16.2408 90.638 15.9063C89.9714 15.5788 89.2635 15.4116 88.5144 15.4116C87.7859 15.4116 87.1124 15.5091 86.4802 15.7043C85.8479 15.8994 85.305 16.2339 84.8445 16.7008C84.3841 17.1677 84.0198 17.7949 83.7587 18.5753C83.4906 19.3628 83.3601 20.3523 83.3601 21.5579C83.3601 22.882 83.635 24.0039 84.1779 24.9238C84.7208 25.8436 85.4218 26.5405 86.2809 27.0213C87.1399 27.5022 88.054 27.7391 89.023 27.7391C89.9164 27.7391 90.6311 27.6694 91.1672 27.5161C91.6964 27.3698 92.1293 27.1886 92.4592 26.9795C92.7822 26.7705 93.0846 26.5893 93.3458 26.4429C93.7787 26.2199 94.1911 26.1084 94.5828 26.1084C95.112 26.1084 95.5587 26.2966 95.9092 26.659C96.2597 27.0283 96.4315 27.4534 96.4315 27.9482C96.4315 28.6102 96.0947 29.2095 95.4144 29.753C94.7821 30.2966 93.9024 30.7635 92.7616 31.1677C91.6208 31.5719 90.4524 31.8018 89.2429 31.8018Z" fill="#271F56"/>
<path d="M110.294 31.8018C108.239 31.8018 106.452 31.3628 104.94 30.4917C103.428 29.6206 102.267 28.436 101.456 26.9377C100.645 25.4394 100.239 23.7461 100.239 21.8576C100.239 19.6485 100.679 17.767 101.566 16.206C102.445 14.645 103.607 13.4534 105.029 12.6171C106.459 11.7809 107.971 11.3628 109.565 11.3628C110.802 11.3628 111.964 11.6206 113.07 12.1363C114.17 12.652 115.146 13.3558 115.991 14.2548C116.836 15.1537 117.51 16.1851 118.005 17.3628C118.499 18.5405 118.747 19.7949 118.747 21.1189C118.726 21.7112 118.492 22.1851 118.06 22.5544C117.627 22.9238 117.118 23.105 116.534 23.105H102.665L101.579 19.4255H114.898L114.101 20.1642V19.1677C114.053 18.4569 113.805 17.8158 113.359 17.2513C112.912 16.6868 112.355 16.2408 111.689 15.9063C111.022 15.5788 110.314 15.4116 109.565 15.4116C108.837 15.4116 108.163 15.5091 107.531 15.7043C106.899 15.8994 106.356 16.2339 105.895 16.7008C105.435 17.1677 105.071 17.7949 104.803 18.5753C104.535 19.3628 104.404 20.3523 104.404 21.5579C104.404 22.882 104.679 24.0039 105.222 24.9238C105.765 25.8436 106.466 26.5405 107.325 27.0213C108.184 27.5022 109.098 27.7391 110.067 27.7391C110.96 27.7391 111.675 27.6694 112.211 27.5161C112.74 27.3698 113.173 27.1886 113.503 26.9795C113.826 26.7705 114.128 26.5893 114.39 26.4429C114.823 26.2199 115.235 26.1084 115.62 26.1084C116.156 26.1084 116.596 26.2966 116.946 26.659C117.297 27.0283 117.475 27.4534 117.475 27.9482C117.475 28.6102 117.139 29.2095 116.458 29.753C115.826 30.2966 114.946 30.7635 113.805 31.1677C112.678 31.5997 111.503 31.8018 110.294 31.8018Z" fill="#271F56"/>
<path d="M122.603 12.1086H131.207C131.791 12.1086 132.272 12.3037 132.657 12.7009C133.042 13.0912 133.241 13.5859 133.241 14.1713C133.241 14.7358 133.049 15.2096 132.657 15.5859C132.272 15.9692 131.784 16.1574 131.207 16.1574H122.603C122.018 16.1574 121.537 15.9622 121.153 15.565C120.768 15.1748 120.568 14.68 120.568 14.0946C120.568 13.5302 120.761 13.0563 121.153 12.68C121.531 12.3037 122.018 12.1086 122.603 12.1086ZM126.486 7.50928C127.111 7.50928 127.626 7.72531 128.032 8.15039C128.437 8.57548 128.63 9.11207 128.63 9.75318V26.1295C128.63 26.471 128.698 26.7567 128.829 26.9797C128.96 27.2027 129.145 27.3629 129.372 27.4605C129.599 27.5581 129.846 27.6068 130.114 27.6068C130.403 27.6068 130.671 27.5511 130.911 27.4396C131.152 27.3281 131.434 27.2723 131.743 27.2723C132.08 27.2723 132.389 27.4326 132.671 27.7532C132.952 28.0737 133.09 28.5128 133.09 29.0772C133.09 29.7671 132.719 30.3316 131.983 30.7706C131.241 31.2096 130.451 31.4326 129.606 31.4326C129.097 31.4326 128.534 31.3908 127.915 31.3002C127.296 31.2166 126.719 31.0075 126.169 30.673C125.626 30.3455 125.173 29.8298 124.809 29.1469C124.444 28.464 124.266 27.5162 124.266 26.3107V9.75318C124.266 9.11903 124.479 8.58245 124.905 8.15039C125.324 7.72531 125.853 7.50928 126.486 7.50928Z" fill="#271F56"/>
<path d="M17.2813 22.2912C19.6193 22.2912 21.5147 20.3693 21.5147 17.9985C21.5147 15.6277 19.6193 13.7058 17.2813 13.7058C14.9432 13.7058 13.0479 15.6277 13.0479 17.9985C13.0479 20.3693 14.9432 22.2912 17.2813 22.2912Z" fill="#271F56"/>
<path d="M17.2814 36C16.8759 36 16.4773 35.9861 16.0856 35.9582C14.7592 35.8676 13.7558 34.7038 13.8451 33.3659C13.9345 32.0209 15.0753 31.0035 16.4017 31.0941C16.6903 31.115 16.9859 31.122 17.2814 31.122C20.0441 31.122 22.6763 30.2509 24.9029 28.6063C25.975 27.8118 27.4801 28.0488 28.2636 29.1359C29.047 30.223 28.8134 31.7491 27.7413 32.5436C24.6899 34.8014 21.075 36 17.2814 36ZM8.29219 33.0523C7.80424 33.0523 7.30943 32.899 6.88333 32.5854C3.50208 30.1045 1.08298 26.4878 0.0727233 22.4042C-0.250282 21.0941 0.533178 19.77 1.81833 19.4425C3.10348 19.115 4.41612 19.9094 4.73913 21.2125C5.47448 24.1882 7.2407 26.8223 9.70792 28.6341C10.7869 29.4216 11.0274 30.9477 10.244 32.0418C9.76977 32.6969 9.04129 33.0523 8.29219 33.0523ZM31.5211 26.2509C31.2187 26.2509 30.9163 26.1951 30.6208 26.0767C29.3906 25.5749 28.7927 24.1533 29.2876 22.9059C29.9061 21.3519 30.2222 19.7003 30.2222 18.007C30.2222 16.6132 30.0092 15.2474 29.5899 13.9443C29.1776 12.662 29.8717 11.2892 31.1294 10.8711C32.3939 10.453 33.7478 11.1568 34.1601 12.4321C34.7374 14.23 35.0261 16.1045 35.0261 18.007C35.0261 20.3275 34.5931 22.5923 33.7478 24.7317C33.3767 25.6725 32.4764 26.2509 31.5211 26.2509ZM2.67051 15.6794C2.42998 15.6794 2.1757 15.6446 1.93516 15.561C0.670627 15.1498 -0.0234911 13.777 0.381984 12.4948C1.65339 8.48084 4.29241 5.02439 7.81799 2.76655C8.9382 2.04878 10.4295 2.39024 11.1374 3.52613C11.8453 4.66202 11.5085 6.17422 10.3883 6.89199C7.81112 8.53659 5.88683 11.0592 4.95904 13.9791C4.63604 15.0174 3.68764 15.6794 2.67051 15.6794ZM27.1434 8.51568C26.6004 8.51568 26.0506 8.32753 25.597 7.94425C23.2742 5.96516 20.3259 4.87805 17.2814 4.87805C15.955 4.87805 14.8485 3.78397 14.8485 2.43902C14.8485 1.09408 15.8931 0 17.2195 0H17.2814C21.4461 0 25.5008 1.49129 28.6828 4.20906C29.6999 5.07317 29.8305 6.61324 28.9783 7.6446C28.511 8.21603 27.8306 8.51568 27.1434 8.51568Z" fill="#271F56"/>
</svg>
