<svg width="52" height="52" viewBox="0 0 52 52" fill="none" xmlns="http://www.w3.org/2000/svg">
<g clip-path="url(#clip0)">
<path d="M26 51.9998C40.3594 51.9998 52 40.3592 52 25.9998C52 11.6404 40.3594 -0.000244141 26 -0.000244141C11.6406 -0.000244141 0 11.6404 0 25.9998C0 40.3592 11.6406 51.9998 26 51.9998Z" fill="#151515" fill-opacity="0.8"/>
<path d="M19 20.999H20C20.5304 20.999 21.0391 20.7883 21.4142 20.4132C21.7893 20.0382 22 19.5295 22 18.999C22 18.7338 22.1054 18.4795 22.2929 18.2919C22.4804 18.1044 22.7348 17.999 23 17.999H29C29.2652 17.999 29.5196 18.1044 29.7071 18.2919C29.8946 18.4795 30 18.7338 30 18.999C30 19.5295 30.2107 20.0382 30.5858 20.4132C30.9609 20.7883 31.4696 20.999 32 20.999H33C33.5304 20.999 34.0391 21.2097 34.4142 21.5848C34.7893 21.9599 35 22.4686 35 22.999V31.999C35 32.5295 34.7893 33.0382 34.4142 33.4132C34.0391 33.7883 33.5304 33.999 33 33.999H19C18.4696 33.999 17.9609 33.7883 17.5858 33.4132C17.2107 33.0382 17 32.5295 17 31.999V22.999C17 22.4686 17.2107 21.9599 17.5858 21.5848C17.9609 21.2097 18.4696 20.999 19 20.999Z" stroke="white" stroke-linecap="round" stroke-linejoin="round"/>
<path d="M26 29.999C27.6569 29.999 29 28.6559 29 26.999C29 25.3422 27.6569 23.999 26 23.999C24.3431 23.999 23 25.3422 23 26.999C23 28.6559 24.3431 29.999 26 29.999Z" stroke="white" stroke-linecap="round" stroke-linejoin="round"/>
</g>
<defs>
<clipPath id="clip0">
<rect width="52" height="52" fill="white"/>
</clipPath>
</defs>
</svg>
