<svg width="83" height="22" viewBox="0 0 83 22" fill="none" xmlns="http://www.w3.org/2000/svg">
<path d="M9.64372 17H13.5557L9.95572 10.904C11.6837 10.496 13.4597 8.984 13.4597 6.152C13.4597 3.176 11.4197 0.991999 8.08372 0.991999H0.595719V17H4.00372V11.264H6.49972L9.64372 17ZM9.97972 6.128C9.97972 7.472 8.94772 8.336 7.57972 8.336H4.00372V3.92H7.57972C8.94772 3.92 9.97972 4.784 9.97972 6.128ZM14.475 11.192C14.475 14.912 17.139 17.288 20.667 17.288C22.467 17.288 24.291 16.736 25.443 15.68L24.099 13.712C23.355 14.432 22.083 14.864 21.003 14.864C19.035 14.864 17.859 13.64 17.667 12.176H26.283V11.504C26.283 7.712 23.931 5.12 20.475 5.12C16.947 5.12 14.475 7.832 14.475 11.192ZM20.475 7.544C22.491 7.544 23.259 9.008 23.331 10.112H17.619C17.763 8.96 18.579 7.544 20.475 7.544ZM31.5327 21.416V15.512C32.4687 16.712 33.7407 17.288 35.1087 17.288C38.0847 17.288 40.2447 15.056 40.2447 11.192C40.2447 7.328 38.0847 5.12 35.1087 5.12C33.6927 5.12 32.4207 5.744 31.5327 6.872V5.408H28.4847V21.416H31.5327ZM37.0767 11.192C37.0767 13.208 35.9007 14.576 34.1487 14.576C33.1647 14.576 32.0367 13.976 31.5327 13.256V9.152C32.0367 8.408 33.1647 7.832 34.1487 7.832C35.9007 7.832 37.0767 9.2 37.0767 11.192ZM47.8997 17.288C51.7397 17.288 54.0437 14.504 54.0437 11.192C54.0437 7.904 51.7397 5.12 47.8997 5.12C44.0837 5.12 41.7797 7.904 41.7797 11.192C41.7797 14.504 44.0837 17.288 47.8997 17.288ZM47.8997 14.576C46.0037 14.576 44.9477 13.016 44.9477 11.192C44.9477 9.392 46.0037 7.832 47.8997 7.832C49.7957 7.832 50.8757 9.392 50.8757 11.192C50.8757 13.016 49.7957 14.576 47.8997 14.576ZM56.305 17H59.353V9.344C59.857 8.6 61.201 8.024 62.209 8.024C62.545 8.024 62.833 8.072 63.049 8.12V5.144C61.609 5.144 60.169 5.96 59.353 6.992V5.408H56.305V17ZM68.8414 17.288C70.1134 17.288 70.9294 16.952 71.3854 16.544L70.7374 14.24C70.5694 14.408 70.1374 14.576 69.6814 14.576C69.0094 14.576 68.6254 14.024 68.6254 13.304V8.072H70.9774V5.408H68.6254V2.24H65.5534V5.408H63.6334V8.072H65.5534V14.12C65.5534 16.184 66.7054 17.288 68.8414 17.288ZM72.0548 15.488C73.2788 16.616 75.2228 17.288 77.2388 17.288C80.4548 17.288 82.2548 15.68 82.2548 13.568C82.2548 10.688 79.5908 10.16 77.5988 9.776C76.3028 9.512 75.3908 9.248 75.3908 8.528C75.3908 7.856 76.1108 7.448 77.2148 7.448C78.6308 7.448 79.9508 8.048 80.6468 8.792L81.8708 6.704C80.7188 5.792 79.1588 5.12 77.1908 5.12C74.1428 5.12 72.4388 6.824 72.4388 8.768C72.4388 11.528 75.0068 12.008 76.9988 12.392C78.3188 12.656 79.3268 12.944 79.3268 13.76C79.3268 14.48 78.7028 14.936 77.3828 14.936C75.9428 14.936 74.2148 14.144 73.3748 13.352L72.0548 15.488Z" fill="white"/>
</svg>
