<svg width="36" height="36" viewBox="0 0 36 36" fill="none" xmlns="http://www.w3.org/2000/svg">
<path d="M17.5232 22.2924C19.8939 22.2924 21.8158 20.3705 21.8158 17.9997C21.8158 15.6289 19.8939 13.707 17.5232 13.707C15.1524 13.707 13.2305 15.6289 13.2305 17.9997C13.2305 20.3705 15.1524 22.2924 17.5232 22.2924Z" fill="white"/>
<path d="M17.5232 36C17.1121 36 16.7079 35.9861 16.3107 35.9582C14.9657 35.8676 13.9483 34.7038 14.0389 33.3659C14.1295 32.0209 15.2863 31.0035 16.6312 31.0941C16.9239 31.115 17.2236 31.122 17.5232 31.122C20.3246 31.122 22.9936 30.2509 25.2514 28.6063C26.3386 27.8118 27.8647 28.0488 28.6591 29.1359C29.4535 30.223 29.2166 31.7491 28.1295 32.5436C25.0354 34.8014 21.3699 36 17.5232 36ZM8.40824 33.0523C7.91346 33.0523 7.41172 32.899 6.97966 32.5854C3.55109 30.1045 1.09813 26.4878 0.0737411 22.4042C-0.253785 21.0941 0.54064 19.77 1.84378 19.4425C3.14691 19.115 4.47792 19.9094 4.80545 21.2125C5.55109 24.1882 7.34203 26.8223 9.84378 28.6341C10.9379 29.4216 11.1818 30.9477 10.3873 32.0418C9.90649 32.6969 9.16782 33.0523 8.40824 33.0523ZM31.9622 26.2509C31.6556 26.2509 31.349 26.1951 31.0494 26.0767C29.802 25.5749 29.1957 24.1533 29.6974 22.9059C30.3246 21.3519 30.6452 19.7003 30.6452 18.007C30.6452 16.6132 30.4291 15.2474 30.0041 13.9443C29.5859 12.662 30.2898 11.2892 31.565 10.8711C32.8473 10.453 34.2201 11.1568 34.6382 12.4321C35.2236 14.23 35.5163 16.1045 35.5163 18.007C35.5163 20.3275 35.0772 22.5923 34.2201 24.7317C33.8438 25.6725 32.9309 26.2509 31.9622 26.2509ZM2.70789 15.6794C2.46398 15.6794 2.20615 15.6446 1.96224 15.561C0.680013 15.1498 -0.0238198 13.777 0.38733 12.4948C1.67653 8.48084 4.35249 5.02439 7.9274 2.76655C9.06329 2.04878 10.5755 2.39024 11.2933 3.52613C12.011 4.66202 11.6696 6.17422 10.5337 6.89199C7.92043 8.53659 5.96921 11.0592 5.02844 13.9791C4.70092 15.0174 3.73925 15.6794 2.70789 15.6794ZM27.5232 8.51568C26.9727 8.51568 26.4152 8.32753 25.9553 7.94425C23.5999 5.96516 20.6103 4.87805 17.5232 4.87805C16.1783 4.87805 15.0563 3.78397 15.0563 2.43902C15.0563 1.09408 16.1156 0 17.4605 0H17.5232C21.7462 0 25.8577 1.49129 29.0842 4.20906C30.1156 5.07317 30.248 6.61324 29.3838 7.6446C28.91 8.21603 28.2201 8.51568 27.5232 8.51568Z" fill="white"/>
</svg>
