<?xml version="1.0" encoding="utf-8"?>
<!-- Generator: Adobe Illustrator 24.3.0, SVG Export Plug-In . SVG Version: 6.00 Build 0)  -->
<svg version="1.1" id="Layer_1" xmlns="http://www.w3.org/2000/svg" xmlns:xlink="http://www.w3.org/1999/xlink" x="0px" y="0px"
	 viewBox="0 0 1600 1024" style="enable-background:new 0 0 1600 1024;" xml:space="preserve">
<style type="text/css">
	.st0{fill:none;stroke:#173FF5;stroke-width:0.6;stroke-linecap:round;stroke-linejoin:round;stroke-miterlimit:10;}
	.st1{fill:#D5E4FE;}
	.st2{fill:url(#SVGID_1_);}
	.st3{fill:url(#SVGID_2_);}
	.st4{fill:#FFFFFF;}
	.st5{opacity:0.8;}
	.st6{opacity:0.3;}
	.st7{fill:#428DFC;}
	.st8{fill:#E4E5E9;}
</style>
<line class="st0" x1="1159.4" y1="1730.4" x2="1457.4" y2="1730.4"/>
<line class="st0" x1="1118.6" y1="1769.8" x2="1416.7" y2="1769.8"/>
<g>
	<circle class="st0" cx="1181" cy="1739.5" r="1.6"/>
	<circle class="st0" cx="1189.9" cy="1739.5" r="1.6"/>
	<circle class="st0" cx="1198.7" cy="1739.5" r="1.6"/>
	<circle class="st0" cx="1181" cy="1746.1" r="1.6"/>
	<circle class="st0" cx="1189.9" cy="1746.1" r="1.6"/>
	<circle class="st0" cx="1198.7" cy="1746.1" r="1.6"/>
	<circle class="st0" cx="1181" cy="1752.8" r="1.6"/>
	<circle class="st0" cx="1189.9" cy="1752.8" r="1.6"/>
	<circle class="st0" cx="1198.7" cy="1752.8" r="1.6"/>
	<circle class="st0" cx="1181" cy="1759.4" r="1.6"/>
	<circle class="st0" cx="1189.9" cy="1759.4" r="1.6"/>
	<circle class="st0" cx="1198.7" cy="1759.4" r="1.6"/>
</g>
<g>
	<circle class="st0" cx="1418.2" cy="1643.6" r="1.6"/>
	<circle class="st0" cx="1427.1" cy="1643.6" r="1.6"/>
	<circle class="st0" cx="1436" cy="1643.6" r="1.6"/>
	<circle class="st0" cx="1418.2" cy="1650.3" r="1.6"/>
	<circle class="st0" cx="1427.1" cy="1650.3" r="1.6"/>
	<circle class="st0" cx="1436" cy="1650.3" r="1.6"/>
	<circle class="st0" cx="1418.2" cy="1656.9" r="1.6"/>
	<circle class="st0" cx="1427.1" cy="1656.9" r="1.6"/>
	<circle class="st0" cx="1436" cy="1656.9" r="1.6"/>
	<circle class="st0" cx="1418.2" cy="1663.5" r="1.6"/>
	<circle class="st0" cx="1427.1" cy="1663.5" r="1.6"/>
	<circle class="st0" cx="1436" cy="1663.5" r="1.6"/>
</g>
<line class="st0" x1="1191" y1="1657.9" x2="1179.4" y2="1657.9"/>
<circle class="st0" cx="1359.4" cy="1677.4" r="1.6"/>
<circle class="st0" cx="1239.4" cy="1663.8" r="1.6"/>
<circle class="st0" cx="1223.2" cy="1635.3" r="1.6"/>
<circle class="st0" cx="1423.6" cy="1769.8" r="1.6"/>
<g>
	<rect x="263.8" y="979.6" class="st1" width="1072.3" height="13.1"/>
	
		<linearGradient id="SVGID_1_" gradientUnits="userSpaceOnUse" x1="-116.8567" y1="2036.2961" x2="150.0433" y2="2036.2961" gradientTransform="matrix(1 0 0 1 115.9567 -1050.1462)">
		<stop  offset="0" style="stop-color:#D5E4FE;stop-opacity:0"/>
		<stop  offset="1" style="stop-color:#D5E4FE"/>
	</linearGradient>
	<rect x="-0.9" y="979.6" class="st2" width="266.9" height="13.1"/>
	
		<linearGradient id="SVGID_2_" gradientUnits="userSpaceOnUse" x1="483.0012" y1="-2565.4412" x2="749.9012" y2="-2565.4412" gradientTransform="matrix(-1 0 0 -1 2083.9014 -1579.2913)">
		<stop  offset="0" style="stop-color:#D5E4FE;stop-opacity:0"/>
		<stop  offset="1" style="stop-color:#D5E4FE"/>
	</linearGradient>
	<polygon class="st3" points="1334,992.7 1600.9,992.7 1600.9,979.6 1334,979.6 	"/>
	<g>
		<rect x="144.2" y="985.2" class="st4" width="49" height="1.9"/>
		<rect x="316.9" y="985.2" class="st4" width="49" height="1.9"/>
		<rect x="489.6" y="985.2" class="st4" width="49" height="1.9"/>
		<rect x="662.3" y="985.2" class="st4" width="49" height="1.9"/>
		<rect x="835" y="985.2" class="st4" width="49" height="1.9"/>
		<rect x="1007.8" y="985.2" class="st4" width="49" height="1.9"/>
		<rect x="1180.5" y="985.2" class="st4" width="49" height="1.9"/>
		<rect x="1353.2" y="985.2" class="st4" width="49" height="1.9"/>
	</g>
</g>
<g class="st5">
	<g class="st6">
		<g>
			<rect x="1051.5" y="885.6" class="st1" width="46" height="48.2"/>
			<polygon class="st7" points="1032.8,870.6 1078.1,870.6 1097.5,885.6 1051.5,885.6 			"/>
			<polygon class="st4" points="1029.2,870.4 1032.6,870.4 1051.5,885.6 1051.5,933.8 1029,933.8 			"/>
		</g>
		<g>
			<rect x="1097.6" y="777.9" class="st1" width="69.8" height="155.9"/>
			<polygon class="st4" points="1134.7,911.7 1097.6,911.7 1097.6,904.9 1133.3,904.9 			"/>
			<polygon class="st4" points="1132.5,899 1097.6,899 1097.6,892.2 1131.1,892.2 			"/>
			<polygon class="st4" points="1130.2,886.2 1097.6,886.2 1097.6,879.5 1128.7,879.5 			"/>
			<polygon class="st4" points="1127.8,874.2 1097.6,874.2 1097.6,867.4 1126.4,867.4 			"/>
			<polygon class="st4" points="1125.4,861.2 1097.6,861.2 1097.6,854.4 1123.9,854.4 			"/>
			<polygon class="st4" points="1122.9,848.9 1097.6,848.9 1097.6,842.1 1121.5,842.1 			"/>
			<polygon class="st4" points="1120.8,836.5 1097.6,836.5 1097.6,829.8 1119.4,829.8 			"/>
			<polygon class="st4" points="1118.5,824.2 1097.6,824.2 1097.6,817.4 1117.1,817.4 			"/>
			<polygon class="st4" points="1116.3,811.3 1097.6,811.3 1097.6,804.6 1114.9,804.6 			"/>
			<polygon class="st4" points="1113.7,799 1097.6,799 1097.6,792.2 1112.3,792.2 			"/>
		</g>
		<g>
			<rect x="193.1" y="885.6" class="st1" width="46" height="48.2"/>
			<polygon class="st7" points="174.5,870.6 219.7,870.6 239.1,885.6 193.1,885.6 			"/>
			<polygon class="st4" points="170.8,870.4 174.2,870.4 193.1,885.6 193.1,933.8 170.7,933.8 			"/>
		</g>
		<g>
			<polygon class="st4" points="58.6,932.7 58.6,827.1 84.8,784.5 111.5,825 111.5,933.8 			"/>
			<polygon class="st7" points="174.4,824.4 147.2,784.5 84.8,784.5 111.5,825 			"/>
			<rect x="111.5" y="824.4" class="st1" width="62.9" height="109.4"/>
			<rect x="67.6" y="838.2" class="st8" width="7.5" height="17.1"/>
			<rect x="80.1" y="838.2" class="st8" width="7.5" height="17.1"/>
			<rect x="92.5" y="838.2" class="st8" width="7.5" height="17.1"/>
			<rect x="129.1" y="838.9" class="st4" width="6.9" height="16.4"/>
			<rect x="140.5" y="838.9" class="st4" width="6.9" height="16.4"/>
			<rect x="152" y="838.9" class="st4" width="6.9" height="16.4"/>
			<rect x="129.1" y="865.2" class="st4" width="6.9" height="16.4"/>
			<rect x="140.5" y="865.2" class="st4" width="6.9" height="16.4"/>
			<rect x="152" y="865.2" class="st4" width="6.9" height="16.4"/>
			<rect x="129.1" y="891.6" class="st4" width="6.9" height="16.4"/>
			<rect x="140.5" y="891.6" class="st4" width="6.9" height="16.4"/>
			<rect x="152" y="891.6" class="st4" width="6.9" height="16.4"/>
			<rect x="67.6" y="864.9" class="st8" width="7.5" height="17.1"/>
			<rect x="80.1" y="864.9" class="st8" width="7.5" height="17.1"/>
			<rect x="92.5" y="864.9" class="st8" width="7.5" height="17.1"/>
			<rect x="67.6" y="891.6" class="st8" width="7.5" height="17.1"/>
			<rect x="80.1" y="891.6" class="st8" width="7.5" height="17.1"/>
			<rect x="92.5" y="891.6" class="st8" width="7.5" height="17.1"/>
			<path class="st7" d="M84.7,913.6L84.7,913.6c2.6,0,4.7,2.1,4.7,4.7v15.1h-9.3v-15.1C80.1,915.6,82.2,913.6,84.7,913.6z"/>
		</g>
		<g>
			<rect x="311.5" y="885.6" class="st1" width="46" height="48.2"/>
			<polygon class="st7" points="292.8,870.6 338.1,870.6 357.5,885.6 311.5,885.6 			"/>
			<polygon class="st4" points="289.2,870.4 292.6,870.4 311.5,885.6 311.5,933.8 289,933.8 			"/>
		</g>
		<g>
			<rect x="239.1" y="814.1" class="st1" width="53.6" height="119.7"/>
			<polygon class="st4" points="267.6,916.8 239.1,916.8 239.1,911.6 266.5,911.6 			"/>
			<polygon class="st4" points="265.9,907 239.1,907 239.1,901.8 264.8,901.8 			"/>
			<polygon class="st4" points="264.2,897.3 239.1,897.3 239.1,892.1 263,892.1 			"/>
			<polygon class="st4" points="262.4,888 239.1,888 239.1,882.8 261.2,882.8 			"/>
			<polygon class="st4" points="260.5,878 239.1,878 239.1,872.8 259.4,872.8 			"/>
			<polygon class="st4" points="258.6,868.6 239.1,868.6 239.1,863.4 257.5,863.4 			"/>
			<polygon class="st4" points="257,859.1 239.1,859.1 239.1,853.9 255.9,853.9 			"/>
			<polygon class="st4" points="255.2,849.6 239.1,849.6 239.1,844.4 254.1,844.4 			"/>
			<polygon class="st4" points="253.5,839.8 239.1,839.8 239.1,834.6 252.4,834.6 			"/>
			<polygon class="st4" points="251.5,830.3 239.1,830.3 239.1,825.1 250.4,825.1 			"/>
		</g>
		<g>
			<rect x="518.7" y="885.6" class="st1" width="46" height="48.2"/>
			<polygon class="st7" points="500.1,870.6 545.3,870.6 564.7,885.6 518.7,885.6 			"/>
			<polygon class="st4" points="496.4,870.4 499.8,870.4 518.7,885.6 518.7,933.8 496.3,933.8 			"/>
		</g>
		<g>
			<polygon class="st4" points="357.5,932.5 357.5,802.7 389.7,750.3 422.5,800.1 422.5,933.8 			"/>
			<polygon class="st7" points="499.8,799.4 466.3,750.3 389.7,750.3 422.5,800.1 			"/>
			<rect x="422.5" y="799.4" class="st1" width="77.3" height="134.4"/>
			<rect x="368.6" y="816.2" class="st8" width="9.2" height="21.1"/>
			<rect x="383.9" y="816.2" class="st8" width="9.2" height="21.1"/>
			<rect x="399.1" y="816.2" class="st8" width="9.2" height="21.1"/>
			<rect x="444.1" y="817.2" class="st4" width="8.5" height="20.2"/>
			<rect x="458.2" y="817.2" class="st4" width="8.5" height="20.2"/>
			<rect x="472.2" y="817.2" class="st4" width="8.5" height="20.2"/>
			<rect x="444.1" y="849.5" class="st4" width="8.5" height="20.2"/>
			<rect x="458.2" y="849.5" class="st4" width="8.5" height="20.2"/>
			<rect x="472.2" y="849.5" class="st4" width="8.5" height="20.2"/>
			<rect x="444.1" y="881.9" class="st4" width="8.5" height="20.2"/>
			<rect x="458.2" y="881.9" class="st4" width="8.5" height="20.2"/>
			<rect x="472.2" y="881.9" class="st4" width="8.5" height="20.2"/>
			<rect x="368.6" y="849.1" class="st8" width="9.2" height="21.1"/>
			<rect x="383.9" y="849.1" class="st8" width="9.2" height="21.1"/>
			<rect x="399.1" y="849.1" class="st8" width="9.2" height="21.1"/>
			<rect x="368.6" y="881.9" class="st8" width="9.2" height="21.1"/>
			<rect x="383.9" y="881.9" class="st8" width="9.2" height="21.1"/>
			<rect x="399.1" y="881.9" class="st8" width="9.2" height="21.1"/>
			<path class="st7" d="M389.6,908.9L389.6,908.9c3.2,0,5.7,2.6,5.7,5.7v18.6h-11.4v-18.6C383.9,911.5,386.4,908.9,389.6,908.9z"/>
		</g>
		<g>
			<rect x="637.1" y="885.6" class="st1" width="46" height="48.2"/>
			<polygon class="st7" points="618.4,870.6 663.7,870.6 683.1,885.6 637.1,885.6 			"/>
			<polygon class="st4" points="614.8,870.4 618.2,870.4 637.1,885.6 637.1,933.8 614.7,933.8 			"/>
		</g>
		<g>
			<rect x="564.7" y="814.1" class="st1" width="53.6" height="119.7"/>
			<polygon class="st4" points="593.2,916.8 564.7,916.8 564.7,911.6 592.1,911.6 			"/>
			<polygon class="st4" points="591.6,907 564.7,907 564.7,901.8 590.4,901.8 			"/>
			<polygon class="st4" points="589.8,897.3 564.7,897.3 564.7,892.1 588.6,892.1 			"/>
			<polygon class="st4" points="588,888 564.7,888 564.7,882.8 586.9,882.8 			"/>
			<polygon class="st4" points="586.1,878 564.7,878 564.7,872.8 585,872.8 			"/>
			<polygon class="st4" points="584.2,868.6 564.7,868.6 564.7,863.4 583.1,863.4 			"/>
			<polygon class="st4" points="582.6,859.1 564.7,859.1 564.7,853.9 581.5,853.9 			"/>
			<polygon class="st4" points="580.8,849.6 564.7,849.6 564.7,844.4 579.7,844.4 			"/>
			<polygon class="st4" points="579.1,839.8 564.7,839.8 564.7,834.6 578,834.6 			"/>
			<polygon class="st4" points="577.1,830.3 564.7,830.3 564.7,825.1 576,825.1 			"/>
		</g>
		<g>
			<rect x="683.3" y="777.9" class="st1" width="69.8" height="155.9"/>
			<polygon class="st4" points="720.4,911.7 683.3,911.7 683.3,904.9 718.9,904.9 			"/>
			<polygon class="st4" points="718.2,899 683.3,899 683.3,892.2 716.7,892.2 			"/>
			<polygon class="st4" points="715.8,886.2 683.3,886.2 683.3,879.5 714.4,879.5 			"/>
			<polygon class="st4" points="713.5,874.2 683.3,874.2 683.3,867.4 712.1,867.4 			"/>
			<polygon class="st4" points="711,861.2 683.3,861.2 683.3,854.4 709.6,854.4 			"/>
			<polygon class="st4" points="708.6,848.9 683.3,848.9 683.3,842.1 707.1,842.1 			"/>
			<polygon class="st4" points="706.5,836.5 683.3,836.5 683.3,829.8 705,829.8 			"/>
			<polygon class="st4" points="704.2,824.2 683.3,824.2 683.3,817.4 702.7,817.4 			"/>
			<polygon class="st4" points="701.9,811.3 683.3,811.3 683.3,804.6 700.5,804.6 			"/>
			<polygon class="st4" points="699.3,799 683.3,799 683.3,792.2 697.9,792.2 			"/>
		</g>
		<g>
			<rect x="1328.8" y="885.6" class="st1" width="46" height="48.2"/>
			<polygon class="st7" points="1310.2,870.6 1355.4,870.6 1374.8,885.6 1328.8,885.6 			"/>
			<polygon class="st4" points="1306.5,870.4 1309.9,870.4 1328.8,885.6 1328.8,933.8 1306.4,933.8 			"/>
		</g>
		<g>
			<polygon class="st4" points="1167.6,932.5 1167.6,802.7 1199.8,750.3 1232.6,800.1 1232.6,933.8 			"/>
			<polygon class="st7" points="1309.9,799.4 1276.4,750.3 1199.8,750.3 1232.6,800.1 			"/>
			<rect x="1232.6" y="799.4" class="st1" width="77.3" height="134.4"/>
			<rect x="1178.7" y="816.2" class="st8" width="9.2" height="21.1"/>
			<rect x="1194" y="816.2" class="st8" width="9.2" height="21.1"/>
			<rect x="1209.2" y="816.2" class="st8" width="9.2" height="21.1"/>
			<rect x="1254.2" y="817.2" class="st4" width="8.5" height="20.2"/>
			<rect x="1268.3" y="817.2" class="st4" width="8.5" height="20.2"/>
			<rect x="1282.3" y="817.2" class="st4" width="8.5" height="20.2"/>
			<rect x="1254.2" y="849.5" class="st4" width="8.5" height="20.2"/>
			<rect x="1268.3" y="849.5" class="st4" width="8.5" height="20.2"/>
			<rect x="1282.3" y="849.5" class="st4" width="8.5" height="20.2"/>
			<rect x="1254.2" y="881.9" class="st4" width="8.5" height="20.2"/>
			<rect x="1268.3" y="881.9" class="st4" width="8.5" height="20.2"/>
			<rect x="1282.3" y="881.9" class="st4" width="8.5" height="20.2"/>
			<rect x="1178.7" y="849.1" class="st8" width="9.2" height="21.1"/>
			<rect x="1194" y="849.1" class="st8" width="9.2" height="21.1"/>
			<rect x="1209.2" y="849.1" class="st8" width="9.2" height="21.1"/>
			<rect x="1178.7" y="881.9" class="st8" width="9.2" height="21.1"/>
			<rect x="1194" y="881.9" class="st8" width="9.2" height="21.1"/>
			<rect x="1209.2" y="881.9" class="st8" width="9.2" height="21.1"/>
			<path class="st7" d="M1199.7,908.9L1199.7,908.9c3.2,0,5.7,2.6,5.7,5.7v18.6H1194v-18.6C1194,911.5,1196.5,908.9,1199.7,908.9z"
				/>
		</g>
		<g>
			<rect x="1447.2" y="885.6" class="st1" width="46" height="48.2"/>
			<polygon class="st7" points="1428.5,870.6 1473.8,870.6 1493.2,885.6 1447.2,885.6 			"/>
			<polygon class="st4" points="1424.9,870.4 1428.3,870.4 1447.2,885.6 1447.2,933.8 1424.8,933.8 			"/>
		</g>
		<g>
			<rect x="1374.8" y="814.1" class="st1" width="53.6" height="119.7"/>
			<polygon class="st4" points="1403.3,916.8 1374.8,916.8 1374.8,911.6 1402.2,911.6 			"/>
			<polygon class="st4" points="1401.7,907 1374.8,907 1374.8,901.8 1400.5,901.8 			"/>
			<polygon class="st4" points="1399.9,897.3 1374.8,897.3 1374.8,892.1 1398.7,892.1 			"/>
			<polygon class="st4" points="1398.1,888 1374.8,888 1374.8,882.8 1397,882.8 			"/>
			<polygon class="st4" points="1396.2,878 1374.8,878 1374.8,872.8 1395.1,872.8 			"/>
			<polygon class="st4" points="1394.3,868.6 1374.8,868.6 1374.8,863.4 1393.2,863.4 			"/>
			<polygon class="st4" points="1392.7,859.1 1374.8,859.1 1374.8,853.9 1391.6,853.9 			"/>
			<polygon class="st4" points="1390.9,849.6 1374.8,849.6 1374.8,844.4 1389.8,844.4 			"/>
			<polygon class="st4" points="1389.2,839.8 1374.8,839.8 1374.8,834.6 1388.1,834.6 			"/>
			<polygon class="st4" points="1387.2,830.3 1374.8,830.3 1374.8,825.1 1386.1,825.1 			"/>
		</g>
		<g>
			<rect x="1493.4" y="777.9" class="st1" width="69.8" height="155.9"/>
			<polygon class="st4" points="1530.5,911.7 1493.4,911.7 1493.4,904.9 1529,904.9 			"/>
			<polygon class="st4" points="1528.3,899 1493.4,899 1493.4,892.2 1526.8,892.2 			"/>
			<polygon class="st4" points="1525.9,886.2 1493.4,886.2 1493.4,879.5 1524.5,879.5 			"/>
			<polygon class="st4" points="1523.6,874.2 1493.4,874.2 1493.4,867.4 1522.1,867.4 			"/>
			<polygon class="st4" points="1521.1,861.2 1493.4,861.2 1493.4,854.4 1519.7,854.4 			"/>
			<polygon class="st4" points="1518.7,848.9 1493.4,848.9 1493.4,842.1 1517.2,842.1 			"/>
			<polygon class="st4" points="1516.6,836.5 1493.4,836.5 1493.4,829.8 1515.1,829.8 			"/>
			<polygon class="st4" points="1514.3,824.2 1493.4,824.2 1493.4,817.4 1512.8,817.4 			"/>
			<polygon class="st4" points="1512,811.3 1493.4,811.3 1493.4,804.6 1510.6,804.6 			"/>
			<polygon class="st4" points="1509.4,799 1493.4,799 1493.4,792.2 1508,792.2 			"/>
		</g>
		<g>
			<rect x="887.6" y="885.6" class="st1" width="46" height="48.2"/>
			<polygon class="st7" points="868.9,870.6 914.2,870.6 933.6,885.6 887.6,885.6 			"/>
			<polygon class="st4" points="865.3,870.4 868.7,870.4 887.6,885.6 887.6,933.8 865.2,933.8 			"/>
		</g>
		<g>
			<polygon class="st4" points="753.1,932.7 753.1,827.1 779.3,784.5 806,825 806,933.8 			"/>
			<polygon class="st7" points="868.9,824.4 841.6,784.5 779.3,784.5 806,825 			"/>
			<rect x="806" y="824.4" class="st1" width="62.9" height="109.4"/>
			<rect x="762.1" y="838.2" class="st8" width="7.5" height="17.1"/>
			<rect x="774.6" y="838.2" class="st8" width="7.5" height="17.1"/>
			<rect x="787" y="838.2" class="st8" width="7.5" height="17.1"/>
			<rect x="823.6" y="838.9" class="st4" width="6.9" height="16.4"/>
			<rect x="835" y="838.9" class="st4" width="6.9" height="16.4"/>
			<rect x="846.4" y="838.9" class="st4" width="6.9" height="16.4"/>
			<rect x="823.6" y="865.2" class="st4" width="6.9" height="16.4"/>
			<rect x="835" y="865.2" class="st4" width="6.9" height="16.4"/>
			<rect x="846.4" y="865.2" class="st4" width="6.9" height="16.4"/>
			<rect x="823.6" y="891.6" class="st4" width="6.9" height="16.4"/>
			<rect x="835" y="891.6" class="st4" width="6.9" height="16.4"/>
			<rect x="846.4" y="891.6" class="st4" width="6.9" height="16.4"/>
			<rect x="762.1" y="864.9" class="st8" width="7.5" height="17.1"/>
			<rect x="774.6" y="864.9" class="st8" width="7.5" height="17.1"/>
			<rect x="787" y="864.9" class="st8" width="7.5" height="17.1"/>
			<rect x="762.1" y="891.6" class="st8" width="7.5" height="17.1"/>
			<rect x="774.6" y="891.6" class="st8" width="7.5" height="17.1"/>
			<rect x="787" y="891.6" class="st8" width="7.5" height="17.1"/>
			<path class="st7" d="M779.2,913.6L779.2,913.6c2.6,0,4.7,2.1,4.7,4.7v15.1h-9.3v-15.1C774.6,915.6,776.6,913.6,779.2,913.6z"/>
		</g>
		<g>
			<rect x="1006" y="885.6" class="st1" width="46" height="48.2"/>
			<polygon class="st7" points="987.3,870.6 1032.6,870.6 1052,885.6 1006,885.6 			"/>
			<polygon class="st4" points="983.7,870.4 987.1,870.4 1006,885.6 1006,933.8 983.5,933.8 			"/>
		</g>
		<g>
			<rect x="933.6" y="814.1" class="st1" width="53.6" height="119.7"/>
			<polygon class="st4" points="962.1,916.8 933.6,916.8 933.6,911.6 961,911.6 			"/>
			<polygon class="st4" points="960.4,907 933.6,907 933.6,901.8 959.3,901.8 			"/>
			<polygon class="st4" points="958.6,897.3 933.6,897.3 933.6,892.1 957.5,892.1 			"/>
			<polygon class="st4" points="956.9,888 933.6,888 933.6,882.8 955.7,882.8 			"/>
			<polygon class="st4" points="955,878 933.6,878 933.6,872.8 953.9,872.8 			"/>
			<polygon class="st4" points="953.1,868.6 933.6,868.6 933.6,863.4 952,863.4 			"/>
			<polygon class="st4" points="951.5,859.1 933.6,859.1 933.6,853.9 950.4,853.9 			"/>
			<polygon class="st4" points="949.7,849.6 933.6,849.6 933.6,844.4 948.6,844.4 			"/>
			<polygon class="st4" points="948,839.8 933.6,839.8 933.6,834.6 946.9,834.6 			"/>
			<polygon class="st4" points="946,830.3 933.6,830.3 933.6,825.1 944.9,825.1 			"/>
		</g>
	</g>
	<g>
		<path class="st1" d="M662.4,965.5h-27.2v-17.1v-13.7v-43.5V867v-18.2h262.4v15.6h10c4,0,7.8,1.6,10.6,4.4l11,11l8.7,8.7
			c1.7,1.7,2.7,4,2.7,6.4l0,0v24.3l0,0c0,1.5,1.2,2.8,2.8,2.8h6.8c8.1,0,14.7,6.6,14.7,14.7v11.6v17.1H939"/>
		<rect x="635.2" y="848.9" class="st7" width="262.4" height="99.5"/>
		<path class="st7" d="M936.8,891.3h-21c-2.1,0-3.7,1.7-3.7,3.7v24c0,2.1,1.7,3.7,3.7,3.7h21c2.1,0,3.7-1.7,3.7-3.7v-24
			C940.6,892.9,938.9,891.3,936.8,891.3z"/>
		<circle class="st1" cx="677.5" cy="970.1" r="15.7"/>
		<circle class="st4" cx="677.5" cy="970.1" r="5.4"/>
		<circle class="st1" cx="714.4" cy="970.1" r="15.7"/>
		<circle class="st4" cx="714.4" cy="970.1" r="5.4"/>
		<g>
			<circle class="st1" cx="923.9" cy="970.1" r="15.7"/>
			<circle class="st4" cx="923.9" cy="970.1" r="5.4"/>
		</g>
	</g>
	<g>
		<path class="st1" d="M1497.4,933.3h-123l0.5,27.6H1520l-0.5-5.4C1519.5,943.2,1509.6,933.3,1497.4,933.3z"/>
		<path class="st1" d="M1483.5,933.3h-109.1v-7.9c0-5.7,2.2-10.8,5.8-14.7c3.9-4.2,9.5-6.9,15.7-6.9h73.7L1483.5,933.3z"/>
		<polygon class="st7" points="1447.8,910.7 1447.8,933.3 1483.5,933.3 1473,910.7 		"/>
		<path class="st7" d="M1438.8,910.7v22.6h-64.4v-7.9c0-5.7,2.2-10.8,5.8-14.7L1438.8,910.7L1438.8,910.7z"/>
		<g>
			<circle class="st1" cx="1397.9" cy="965.8" r="14.4"/>
			<circle class="st4" cx="1397.9" cy="965.8" r="4.9"/>
		</g>
		<g>
			<circle class="st1" cx="1494.8" cy="965.8" r="14.4"/>
			<circle class="st4" cx="1494.8" cy="965.8" r="4.9"/>
		</g>
	</g>
	<g>
		<path class="st1" d="M390.1,873.7c0,0-1.4-6.5-6.2-6.5H223.1h-0.8H69.7c-7.2,0-6.2,6.5-6.2,6.5l-2.8,32.6c0,0,0,39.5,0,51.5
			c0,9.3,7.1,9.3,7.1,9.3h154.4h0.8h154.4c0,0,27.1,2.7,27.1-9.3c0-12.1,0-27.3,0-27.3L390.1,873.7z"/>
		<g>
			<polygon class="st7" points="385.8,875.8 369,875.8 369,917.3 399.8,927.9 			"/>
			<g>
				<g>
					<rect x="322.9" y="879.4" class="st7" width="12.4" height="85"/>
					<rect x="338.1" y="879.4" class="st7" width="12.4" height="85"/>
				</g>
			</g>
			<g>
				<polygon class="st7" points="308.2,873.7 75.2,873.7 68.7,901.8 308.2,901.8 				"/>
				<rect x="270.9" y="872.3" class="st1" width="1.4" height="31.4"/>
				<rect x="237.5" y="872.3" class="st1" width="1.4" height="31.4"/>
				<rect x="204.2" y="872.3" class="st1" width="1.4" height="31.4"/>
				<rect x="170.8" y="872.3" class="st1" width="1.4" height="31.4"/>
				<rect x="137.5" y="872.3" class="st1" width="1.4" height="31.4"/>
				<rect x="104.1" y="872.3" class="st1" width="1.4" height="31.4"/>
			</g>
		</g>
		<g>
			<g>
				<circle class="st1" cx="93.6" cy="964.3" r="18.3"/>
				<circle class="st4" cx="93.6" cy="964.3" r="6.2"/>
			</g>
			<g>
				<circle class="st1" cx="135.6" cy="964.3" r="18.3"/>
				<circle class="st4" cx="135.6" cy="964.3" r="6.2"/>
			</g>
			<g>
				<circle class="st1" cx="292.3" cy="964.3" r="18.3"/>
				<circle class="st4" cx="292.3" cy="964.3" r="6.2"/>
			</g>
		</g>
	</g>
</g>
</svg>
