<svg width="16" height="17" viewBox="0 0 16 17" fill="none" xmlns="http://www.w3.org/2000/svg">
<path d="M8 2C4.41595 2 1.5 4.91595 1.5 8.5C1.5 12.0841 4.41595 15 8 15C11.5841 15 14.5 12.0841 14.5 8.5C14.5 4.91595 11.584 2 8 2ZM8.42281 12.3566C8.114 12.4081 7.49953 12.5367 7.18749 12.5625C6.92337 12.5844 6.67413 12.4332 6.52219 12.2162C6.36985 11.9991 6.33335 11.7214 6.42379 11.4723L7.65246 8.09376H6.37499C6.3739 7.38977 6.90194 6.87214 7.57732 6.67348C7.89962 6.57865 8.5001 6.44888 8.81248 6.46877C8.99963 6.48067 9.32585 6.59809 9.47779 6.81512C9.63012 7.03213 9.66662 7.30985 9.57618 7.55899L8.34752 10.9375H9.62459C9.62484 11.6407 9.11648 12.241 8.42281 12.3566V12.3566ZM8.81248 6.06251C8.36374 6.06251 7.99998 5.69869 7.99998 5.25C7.99998 4.80126 8.36374 4.43749 8.81248 4.43749C9.26123 4.43749 9.62499 4.80126 9.62499 5.25C9.62499 5.69872 9.26125 6.06251 8.81248 6.06251Z" fill="#151515"/>
</svg>
