<svg width="25" height="24" viewBox="0 0 25 24" fill="none" xmlns="http://www.w3.org/2000/svg">
<g clip-path="url(#clip0)">
<path fill-rule="evenodd" clip-rule="evenodd" d="M20.7056 24H4.52549C2.36414 24 0.623047 22.2439 0.623047 20.0976V3.90244C0.623047 1.7561 2.37914 0 4.52549 0H20.7056C22.8669 0 24.608 1.7561 24.608 3.90244V20.0826C24.623 22.2439 22.8669 24 20.7056 24Z" fill="#D02127"/>
<path d="M4.33008 9.27539H7.03177V10.0259H6.82164C6.67154 10.0259 6.5965 10.0409 6.55147 10.0559C6.52145 10.0709 6.49143 10.1159 6.49143 10.1609C6.49143 10.221 6.53646 10.326 6.6115 10.4611L7.33196 11.6469L8.12745 10.4161C8.2025 10.311 8.23252 10.251 8.24753 10.236C8.26254 10.206 8.26254 10.176 8.26254 10.1459C8.26254 10.1009 8.24753 10.0709 8.21751 10.0559C8.18749 10.0409 8.11244 10.0259 8.00738 10.0259H7.73721V9.27539H9.89856V10.0259C9.70344 10.0259 9.56835 10.0559 9.49331 10.0859C9.41826 10.1309 9.3282 10.221 9.22314 10.3861L7.76723 12.5024V13.478C7.76723 13.6431 7.78224 13.7632 7.79725 13.8082C7.81226 13.8533 7.85728 13.8983 7.91732 13.9283C7.97736 13.9583 8.08242 13.9583 8.23252 13.9583H8.42764V14.7088H5.77098V13.9583H5.92107C6.10119 13.9583 6.22126 13.9433 6.2813 13.9283C6.32633 13.8983 6.37135 13.8683 6.40137 13.8082C6.43139 13.7482 6.4464 13.6281 6.4464 13.448V12.6075L5.0055 10.4011C4.88543 10.236 4.79537 10.1159 4.70531 10.0709C4.64528 10.0409 4.5252 10.0259 4.33008 10.0259V9.27539Z" fill="white"/>
<path d="M12.1795 9.27539H13.3953L15.0313 13.478C15.1213 13.7032 15.1964 13.8382 15.2714 13.8983C15.3465 13.9583 15.4666 13.9733 15.6467 13.9733V14.7238H13.0801V13.9733H13.2302C13.3803 13.9733 13.4703 13.9583 13.5303 13.9133C13.5904 13.8683 13.6204 13.8232 13.6204 13.7782C13.6204 13.7332 13.5904 13.6281 13.5454 13.493L13.3803 12.9827H11.7292L11.5191 13.5381C11.4741 13.6581 11.4591 13.7332 11.4591 13.7632C11.4591 13.8082 11.4741 13.8382 11.5041 13.8833C11.5341 13.9283 11.5791 13.9433 11.6542 13.9583C11.6992 13.9733 11.8193 13.9733 12.0144 13.9733V14.7238H9.91309V13.9733C10.0482 13.9733 10.1532 13.9583 10.2133 13.9433C10.2733 13.9133 10.3333 13.8833 10.3634 13.8382C10.4084 13.7932 10.4534 13.7032 10.4985 13.5831L12.1795 9.27539ZM12.0144 12.2022H13.0951L12.5697 10.7013L12.0144 12.2022Z" fill="white"/>
<path d="M15.9776 9.27539H18.8594C19.2197 9.27539 19.5199 9.30541 19.76 9.38046C20.0002 9.4555 20.2103 9.56057 20.3754 9.71066C20.5555 9.86076 20.6756 10.0409 20.7806 10.251C20.8707 10.4611 20.9157 10.6713 20.9157 10.9114C20.9157 11.3767 20.7356 11.7669 20.3754 12.0821C20.0152 12.3973 19.5199 12.5474 18.8895 12.5474H17.9589V13.5681C17.9589 13.6881 17.9739 13.7782 17.9889 13.8082C18.0189 13.8533 18.0489 13.8983 18.094 13.9133C18.139 13.9433 18.2291 13.9433 18.3341 13.9433H18.6043V14.6938H15.9476V13.9433H16.1277C16.2928 13.9433 16.3979 13.9283 16.4429 13.9133C16.488 13.8833 16.533 13.8533 16.563 13.8082C16.593 13.7632 16.593 13.6581 16.593 13.493V10.5212C16.593 10.3561 16.578 10.251 16.563 10.191C16.548 10.1309 16.503 10.1009 16.4579 10.0709C16.4129 10.0409 16.3229 10.0409 16.2028 10.0409H15.9326V9.27539H15.9776ZM17.9739 10.1609V11.7069H18.4392C18.7244 11.7069 18.9345 11.6769 19.0696 11.6169C19.2047 11.5568 19.3097 11.4668 19.3848 11.3467C19.4598 11.2266 19.5048 11.0765 19.5048 10.9114C19.5048 10.6563 19.4148 10.4611 19.2197 10.326C19.0696 10.221 18.8594 10.1609 18.5893 10.1609H17.9739Z" fill="white"/>
</g>
<defs>
<clipPath id="clip0">
<rect width="24" height="24" fill="white" transform="translate(0.623047)"/>
</clipPath>
</defs>
</svg>
